<?xml version="1.0" encoding="UTF-8" standalone="no"?>
<!DOCTYPE svg PUBLIC "-//W3C//DTD SVG 1.1//EN"
 "http://www.w3.org/Graphics/SVG/1.1/DTD/svg11.dtd">
<!-- Generated by graphviz version 2.43.0 (0)
 -->
<!-- Title: %3 Pages: 1 -->
<svg width="135pt" height="33pt"
 viewBox="0.00 0.00 135.00 33.00" xmlns="http://www.w3.org/2000/svg" xmlns:xlink="http://www.w3.org/1999/xlink">
<g id="graph0" class="graph" transform="scale(1 1) rotate(0) translate(4 29)">
<title>%3</title>
<polygon fill="white" stroke="transparent" points="-4,4 -4,-29 131,-29 131,4 -4,4"/>
<!-- node_root -->
<g id="node1" class="node">
<title>node_root</title>
<polygon fill="none" stroke="black" points="0.5,0.5 0.5,-24.5 29.5,-24.5 29.5,0.5 0.5,0.5"/>
<text text-anchor="start" x="5.5" y="-8.3" font-family="Times,serif" font-size="14.00">P0</text>
<polygon fill="none" stroke="black" points="29.5,0.5 29.5,-24.5 49.5,-24.5 49.5,0.5 29.5,0.5"/>
<text text-anchor="start" x="34.5" y="-8.3" font-family="Times,serif" font-size="14.00">3</text>
<polygon fill="none" stroke="black" points="49.5,0.5 49.5,-24.5 78.5,-24.5 78.5,0.5 49.5,0.5"/>
<text text-anchor="start" x="54.5" y="-8.3" font-family="Times,serif" font-size="14.00">P1</text>
<polygon fill="none" stroke="black" points="78.5,0.5 78.5,-24.5 98.5,-24.5 98.5,0.5 78.5,0.5"/>
<text text-anchor="start" x="83.5" y="-8.3" font-family="Times,serif" font-size="14.00">6</text>
<polygon fill="none" stroke="black" points="98.5,0.5 98.5,-24.5 127.5,-24.5 127.5,0.5 98.5,0.5"/>
<text text-anchor="start" x="103.5" y="-8.3" font-family="Times,serif" font-size="14.00">P2</text>
</g>
</g>
</svg>
